<?xml version="1.0" encoding="utf-8"?>
<!-- Generator: Adobe Illustrator 19.1.1, SVG Export Plug-In . SVG Version: 6.00 Build 0)  -->
<!DOCTYPE svg PUBLIC "-//W3C//DTD SVG 1.1//EN" "http://www.w3.org/Graphics/SVG/1.1/DTD/svg11.dtd">
<svg version="1.1" id="Calque_1" xmlns="http://www.w3.org/2000/svg" xmlns:xlink="http://www.w3.org/1999/xlink" x="0px" y="0px"
	 viewBox="-456 906 166 109" style="enable-background:new -456 906 166 109;" xml:space="preserve">
<style type="text/css">
	.st0{fill:#CFD8DC;}
</style>
<g transform="translate(0.000000,109.000000) scale(0.100000,-0.100000)">
	<path class="st0" d="M-3870-7970c-74,0-601.4-269-656.5-334.8c-60.5-71.7-47.1-107.6,109-295.9c78-92.7,193.7-233.1,255.6-310.9
		c68.6-86.7,125.1-143.5,144-146.5c82.1-13.5,133.2,43.3,113,127c-4,22.4-56.5,100.1-115.7,171.9c-57.9,73.2-103.6,137.5-99.6,140.5
		c18.8,22.4,438.6,52.3,715.7,53.8c255.6,0,320.2-4.5,361.9-23.9c28.3-13.5,57.9-23.9,64.6-23.9c26.9,0,78,74.7,78,116.6
		c0,92.7-87.4,133-340.4,152.4c-200.5,16.4-522,3-827.4-31.4c-94.2-12-156.1-13.5-164.1-4.5c-8.1,9,60.5,50.8,183,110.6
		c109,53.8,211.2,112.1,228.7,130c39,40.4,41.7,98.6,5.4,139C-3829.7-7983.5-3855.2-7970-3870-7970z"/>
</g>
</svg>
