<?xml version="1.0" encoding="utf-8"?>
<!-- Generator: Adobe Illustrator 19.1.1, SVG Export Plug-In . SVG Version: 6.00 Build 0)  -->
<!DOCTYPE svg PUBLIC "-//W3C//DTD SVG 1.1//EN" "http://www.w3.org/Graphics/SVG/1.1/DTD/svg11.dtd">
<svg version="1.1" id="Calque_1" xmlns="http://www.w3.org/2000/svg" xmlns:xlink="http://www.w3.org/1999/xlink" x="0px" y="0px"
	 viewBox="-283 705 512 512" style="enable-background:new -283 705 512 512;" xml:space="preserve">
<style type="text/css">
	.st0{fill:#333333;}
	.st1{fill:#F8F8F8;}
	.st2{fill:#E6E5E7;}
</style>
<g>
	<path class="st0" d="M-214.3,871c0.5-4.1,0.9-8.3,1.4-12.4c0.2-1.1,0.4-2.1,0.6-3.2c1.7-7.2,5.2-13.7,7.8-20.6
		c0.6-1.7,1.8-3.2,3.1-4.5c4.1-4.2,7.1-9.4,11.9-13c2.5-1.9,4.6-4.3,7.5-5.8c0.4-0.2,0.5-0.5,0.3-0.9c1.5-0.4,2.8-1.3,4.1-2.3
		c0,0,0.1,0,0.1,0c3.1-1.5,6.1-2.9,9.2-4.4c1.3-0.5,2.5-0.9,3.8-1.4c12.5-4.7,25.5-4.2,38.6-4.2c1.6,0,1.6,0.7,1.6,1.9
		c0,5.4,0,10.9,0,16.3c0,10.6,0.1,21.2,0.1,31.8c-0.2,0.5-0.3,1.1,0,1.6c-0.6,1.9-0.1,3.9-0.2,5.9c-0.5,8.8,2.1,16.4,9.7,21.6
		c7.3,5,15.2,5.6,23.1,1.6c8-4.1,12.2-11,12.2-20c0.1-19.4,0.1-38.8,0-58.2c0-2.2,0.6-2.6,2.7-2.6c35.7,0.1,71.3,0.1,107,0
		c2,0,2.7,0.4,2.7,2.6c-0.1,18.3,0,36.7-0.1,55c0,3.1,0.2,6.2,0.9,9.3c2.4,10.4,13.6,17.9,24.7,16.2c11.5-1.7,19.4-10.9,19.4-22.7
		c0-19,0.1-37.9,0-56.9c0-2.7,0.5-3.9,3.4-3.5c1.9,0.2,3.9,0,5.9-0.1c0.6,0,1.1,0,1.7,0c9.6,0.3,18.9,2.1,27.9,5.6
		c0.1,0.1,0.3,0.2,0.5,0.2c3.1,1.6,6.1,3.1,9.2,4.7c12.4,7.4,22,17.5,28.4,30.4c0.3,0.6,0.7,1.2,1.1,1.8c0.2,0.2,0.3,0.5,0.5,0.7
		c-0.1,0.1,0,0.3,0.1,0.3c5.7,12.5,7.1,25.8,6.6,39.3c-0.2,4.8-0.2,9.6-0.2,14.5c0,11.6,0.2,23.2,0.2,34.8c0,45,0,90.1,0,135.1
		c0,13.3,0,26.6,0,39.9c-0.6,7.7-2.3,15.3-4.9,22.4c-1.9,5.3-4.8,10.2-8,14.9c-2.7,4-5.5,8-8.9,11.2c-3.7,3.5-8,6.6-12.4,9.5
		c-4.9,3.3-10.2,5.8-15.6,7.9c-3.7,1.4-7.9,2.2-12,2.9c-2.7,0.5-5.4,0.8-8.2,1c-0.2,0-0.4,0-0.6,0.1c-18.7,0-37.4-0.1-56-0.1
		c-6,0-12,0.1-18,0.1c-1-0.1-2-0.4-2.9,0.3l-0.1,0c-0.8-0.6-1.7-0.4-2.6-0.4c-33.7,0-67.4,0-101,0c-0.9,0-1.8,0.1-2.7,0.1
		c-5.8-0.5-11.6,0-17.4-0.2c-13.9-0.5-28,1.2-41.8-0.8c-24.3-3.5-42.5-16.4-54.7-37.6c-6.3-10.9-9.2-22.8-9.4-35.4
		c0-0.5-0.1-1.1-0.2-1.6c0-3.9,0.1-7.8,0.1-11.7c0-62.8,0-125.6,0-188.4C-214.2,890.3-214.2,880.6-214.3,871z M123.1,925.2
		c-0.2,0-0.4,0-0.6,0c-14.8,0-29.7,0-44.5,0c-0.4,0-0.7,0-1.1,0c-5.5,0-11.1,0-16.6,0c-0.4,0-0.7,0-1.1,0c-0.5,0-1.1,0-1.6-0.1
		c-1.1,0-2.2,0-3.2,0c-20.7,0-41.5-0.1-62.2-0.1c-55.2,0-110.3,0-165.5-0.1c-2.3,0-2.7,0.7-2.7,2.9c0.1,36.7,0,73.5,0,110.2
		c0,21.4-0.1,42.7,0.1,64.1c0.2,18.5,15.6,34.3,34,34.9c11.2,0.4,22.5,0.2,33.8,0.2c44.3,0,88.7,0,133,0c21.6,0,43.3,0.3,64.9-0.2
		c19.6-0.4,34.9-16.2,35-35.8c0.1-29.2,0-58.4,0-87.7c0-24.5,0-49,0-73.5c0-4.4,0-8.8,0-13.1C124.9,925.8,124.7,924.9,123.1,925.2z"
		/>
	<path class="st0" d="M73.3,779.5c0,1.4-0.1,2.9-0.1,4.3c0,24.8,0,49.7,0,74.5c0,6.7-2.4,12.2-8,16c-10.4,7-24.9,0.4-26.6-12.1
		c-0.3-2.4-0.4-4.8-0.4-7.2c0-28.9,0-57.8,0-86.7c0-4.4,0.9-8.5,3.4-12.2c2.5-3.2,5.9-5.9,9.7-6.6c5.8-1.1,11.6-0.1,16.1,4.4
		c0.8,0.8,1.7,1.6,2.5,2.3c3.7,5.6,3.4,11.9,3.3,18.1c0,1.5,0.1,3,0.1,4.5C73.3,779.1,73.3,779.3,73.3,779.5z"/>
	<path class="st0" d="M-119.4,856.7c0-30.4,0-60.8,0.1-91.2c0-2.7,0.2-5.4,1.6-7.9c2.5-3.5,5.1-6.7,9.3-8.3c6.7-2.4,12.7-1.4,18,3.3
		c0.4,0.3,0.9,0.6,1.3,0.9c3.4,4.2,4.7,9,4.7,14.4c-0.1,30-0.1,60.1-0.1,90.1c0,9.8-6.4,16.9-16.2,18c-7.9,0.9-16.6-5.4-18.2-13.2"
		/>
	<path class="st1" d="M156.3,841.6c-0.2-0.2-0.3-0.5-0.5-0.7C156,841.2,156.2,841.4,156.3,841.6z"/>
	<path class="st2" d="M-124.1,848.4c0.8,0.1,1.9,0,1.8,1c-0.1,0.9-1.1,0.4-1.8,0.6C-124.5,849.5-124.3,849-124.1,848.4z"/>
	<path class="st0" d="M64.7,991c12.9,0,25.7,0,38.6,0c1.7,0,2.1,0.4,2.1,2.1c-0.1,7.7-0.1,15.4,0,23.1c0,1.6-0.2,2.4-2.1,2.3
		c-19.1-0.1-38.3-0.2-57.4-0.2c-6.5,0-13,0-19.5,0.2c-1.9,0-2.4-0.4-2.4-2.4c0.1-7.6,0.1-15.2,0-22.8c0-2,0.6-2.3,2.4-2.3
		C39.1,991.1,51.9,991,64.7,991C64.7,991,64.7,991,64.7,991z"/>
	<path class="st0" d="M-114.8,1065.3c-12.7,0-25.4,0-38.1,0c-1.9,0-2.4-0.5-2.4-2.4c0.1-7.6,0.1-15.2,0-22.8c0-1.6,0.1-2.2,2.1-2.2
		c10,0.2,20,0.1,30,0.1c15.7,0,31.4-0.1,47.1-0.2c1.8,0,2.2,0.6,2.2,2.3c-0.1,7.5-0.1,15,0,22.5c0,2.1-0.5,2.7-2.6,2.7
		C-89.3,1065.2-102.1,1065.3-114.8,1065.3C-114.8,1065.3-114.8,1065.3-114.8,1065.3z"/>
	<path class="st0" d="M-73.9,991.2c0,8.4-0.1,16.8,0,25.2c0,1.6-0.3,2.1-2,2.1c-25.7-0.1-51.3-0.1-77,0c-1.8,0-2.5-0.4-2.5-2.3
		c0.1-7.6,0.1-15.2,0-22.8c0-1.9,0.5-2.3,2.4-2.3c25.3,0.1,50.6,0,75.9,0c0.9,0,1.8-0.1,2.7-0.1C-74.2,991.1-74.1,991.2-73.9,991.2z
		"/>
	<path class="st0" d="M-24.9,1065.3c-12.7,0-25.4,0-38.1,0c-2,0-2.8-0.4-2.7-2.6c0.2-7.5,0.1-15,0-22.5c0-1.9,0.5-2.4,2.4-2.4
		c25.6,0.1,51.1,0.1,76.7,0c1.9,0,2.4,0.5,2.4,2.4c-0.1,7.6-0.1,15.2,0,22.7c0,1.9-0.6,2.4-2.4,2.4
		C0.6,1065.3-12.1,1065.3-24.9,1065.3C-24.9,1065.3-24.9,1065.3-24.9,1065.3z"/>
	<path class="st0" d="M-25.3,1018.4c-12.7,0-25.4,0-38.1,0c-1.9,0-2.4-0.5-2.4-2.4c0.1-7.6,0.1-15.2,0-22.8c0-1.9,0.6-2.3,2.4-2.3
		c25.4,0.1,50.7,0.1,76.1,0c2.3,0,3,0.4,3,2.9c-0.2,7.3-0.1,14.6,0,22c0,1.9-0.3,2.6-2.5,2.6C0.5,1018.4-12.4,1018.4-25.3,1018.4z"
		/>
	<path class="st0" d="M64.6,944c12.8,0,25.6,0,38.4,0c1.9,0,2.4,0.5,2.4,2.4c-0.1,7.7-0.1,15.4,0,23.1c0,1.7-0.4,2.1-2.1,2.1
		c-25.8-0.1-51.5-0.1-77.3,0c-1.6,0-2.1-0.3-2.1-2c0.1-7.7,0.1-15.4,0-23.1c0-1.9,0.5-2.4,2.4-2.4C39.1,944,51.9,944,64.6,944z"/>
	<path class="st0" d="M-73.8,945c0,7.9-0.1,15.9-0.1,23.8c0,1.8-0.2,2.6-2.4,2.6c-25.5-0.1-51.1-0.1-76.6,0c-1.9,0-2.4-0.5-2.4-2.4
		c0.1-7.3,0.2-14.7,0-22c-0.1-2.6,0.7-3.2,3.3-3.2c25.1,0.1,50.2,0.1,75.3,0.1c0.8,0,1.6,0,2.4-0.1C-74.2,944.3-74,944.7-73.8,945z"
		/>
	<path class="st0" d="M-25,944c12.8,0,25.6,0,38.3,0c1.8,0,2.5,0.3,2.4,2.3c-0.1,7.7-0.1,15.4,0,23.1c0,1.2,0.2,1.7-1.7,1.8
		c-2.1,0-4.2,0.3-6.3,0.3c-23.7,0-47.4,0-71.1,0.1c-1.8,0-2.4-0.4-2.4-2.3c0.1-7.7,0.1-15.4,0-23.1c0-1.6,0.4-2.1,2.1-2.1
		C-50.7,944.1-37.9,944.1-25,944C-25,944-25,944-25,944z"/>
</g>
</svg>
