<?xml version="1.0" encoding="utf-8"?>
<!-- Generator: Adobe Illustrator 18.0.0, SVG Export Plug-In . SVG Version: 6.00 Build 0)  -->
<!DOCTYPE svg PUBLIC "-//W3C//DTD SVG 1.1//EN" "http://www.w3.org/Graphics/SVG/1.1/DTD/svg11.dtd">
<svg version="1.1" id="Calque_1" xmlns="http://www.w3.org/2000/svg" xmlns:xlink="http://www.w3.org/1999/xlink" x="0px" y="0px"
	 viewBox="0 0 512 512" enable-background="new 0 0 512 512" xml:space="preserve">
<g>
	<path fill="#3C3C3C" d="M375,287.3c-10.6,9.6-20.5,18.7-30.5,27.5c-14.1,12.4-29.2,23.5-45.1,33.5c-12.6,7.9-25.6,14.8-39.5,20.2
		c-28.3,11-57.3,14-86.7,5.7c-13.4-3.8-25.8-10.1-37.7-17.8c-18-11.6-33.2-26.1-46.6-42.4c-12.1-14.6-22.1-30.9-32.9-46.5
		c-2.2-3.1-4.1-6.5-5.9-9.8c-1.1-1.9-1.8-4-2.6-6c0.4-0.2,0.7-0.4,1.1-0.7c1.8,2.4,3.4,5,5.5,7.1c9.5,8.8,18.6,18.2,28.8,26.1
		c19.2,14.7,40.3,26,65,28.9c21.2,2.5,41.3-1.9,60.6-9.9c16.7-7,31.8-16.7,46.5-27.2c15.7-11.3,30-24.2,43.7-37.7
		c3.2-3.1,6.9-5.7,10.3-8.6c3.2-2.7,3.3-5.2,0.2-8.3c-12.2-12-24.3-24.2-36.4-36.4c-2.5-2.5-5-4.9-7-7.8c-5.4-7.7-1.4-17.2,7.8-18.3
		c37.8-4.6,75.6-8.9,113.5-13.5c20.2-2.4,40.5-4.6,60.6-7.7c9.3-1.5,16.4,5.4,15.1,15.6c-5.3,40.8-9.9,81.7-14.8,122.6
		c-2,16.9-4.1,33.8-6.3,50.7c-0.6,4.3-2,8-6.9,9.9c-5.5,2.1-9.8,0.4-13.5-3.2c-11.8-11.6-23.4-23.3-35-34.9
		C382.4,294.7,378.8,291.1,375,287.3z"/>
</g>
</svg>
