<?xml version="1.0" encoding="utf-8"?>
<!-- Generator: Adobe Illustrator 19.1.1, SVG Export Plug-In . SVG Version: 6.00 Build 0)  -->
<!DOCTYPE svg PUBLIC "-//W3C//DTD SVG 1.1//EN" "http://www.w3.org/Graphics/SVG/1.1/DTD/svg11.dtd">
<svg version="1.1" id="Livello_1" xmlns="http://www.w3.org/2000/svg" xmlns:xlink="http://www.w3.org/1999/xlink" x="0px" y="0px"
	 viewBox="-531 952 17 17" style="enable-background:new -531 952 17 17;" xml:space="preserve">
<style type="text/css">
	.st0{fill:#CFD8DC;}
</style>
<g transform="translate(0.000000,109.000000) scale(0.100000,-0.100000)">
	<path class="st0" d="M-5238.3-8430c-7.5,0-60.9-42-66.5-52.2c-6.1-11.2-4.8-16.8,11-46.2c7.9-14.5,19.6-36.4,25.9-48.5
		c7-13.5,12.7-22.4,14.6-22.8c8.3-2.1,13.5,6.8,11.5,19.8c-0.4,3.5-5.7,15.6-11.7,26.8c-5.9,11.4-10.5,21.4-10.1,21.9
		c1.9,3.5,44.4,8.2,72.5,8.4c25.9,0,32.4-0.7,36.7-3.7c2.9-2.1,5.9-3.7,6.5-3.7c2.7,0,7.9,11.7,7.9,18.2c0,14.5-8.9,20.7-34.5,23.8
		c-20.3,2.6-52.9,0.5-83.8-4.9c-9.5-1.9-15.8-2.1-16.6-0.7c-0.8,1.4,6.1,7.9,18.5,17.2c11,8.4,21.4,17.5,23.2,20.3
		c4,6.3,4.2,15.4,0.5,21.7C-5234.2-8432.1-5236.8-8430-5238.3-8430z"/>
</g>
</svg>
