<?xml version="1.0" encoding="utf-8"?>
<!-- Generator: Adobe Illustrator 19.1.1, SVG Export Plug-In . SVG Version: 6.00 Build 0)  -->
<!DOCTYPE svg PUBLIC "-//W3C//DTD SVG 1.1//EN" "http://www.w3.org/Graphics/SVG/1.1/DTD/svg11.dtd">
<svg version="1.1" id="Calque_1" xmlns="http://www.w3.org/2000/svg" xmlns:xlink="http://www.w3.org/1999/xlink" x="0px" y="0px"
	 viewBox="-283 705 512 512" style="enable-background:new -283 705 512 512;" xml:space="preserve">
<style type="text/css">
	.st0{fill:#3C3C3C;}
</style>
<g>
	<path class="st0" d="M-180.7,1042.6c0-27.1,0-54.1,0-81.2c0-2.5,0.1-2.1-2.1-2.1c-16.2,0-32.3,0-48.5,0c-2.8,0-5.6-0.2-8.3-1
		c-1-0.3-1.9-0.6-2.8-1.1c-4.1-2-5.4-5.5-3.6-9.7c1.2-2.9,3.2-5.3,5.5-7.4c5.4-4.8,10.8-9.5,16.2-14.3
		c44.3-38.8,88.6-77.5,132.9-116.3c13.5-11.8,27.1-23.7,40.6-35.5c13.4-11.7,34.4-11.7,47.8,0c26.1,22.8,52.2,45.6,78.2,68.4
		c36.1,31.5,72.1,63.1,108.2,94.6c2.4,2.1,4.9,4.3,6.8,6.9c0.9,1.3,1.8,2.7,2.3,4.3c1.2,3.6,0.1,6.6-3.2,8.5
		c-2.9,1.7-6.2,2.3-9.5,2.3c-9.5,0.1-18.9,0.1-28.4,0.1c-7.5,0-15.1,0-22.6,0c-1.5,0-1.9,0.3-1.9,1.9c0.1,31.6,0,63.2,0,94.8
		c0,21.6,0,43.3,0,64.9c0,15.6-10.6,28-26,30.3c-1.5,0.2-3,0.3-4.5,0.3c-23.6,0-47.2,0-70.8,0c-2.1,0-2.1,0-2.1-2.1
		c0-25.4,0-50.8,0-76.1c0-14.4-9.4-26.3-23.2-29.6c-2.2-0.5-4.4-0.8-6.6-0.8c-13.6,0-27.2,0-40.7,0c-16.6,0.1-29.9,13.4-29.9,30
		c0,25.6,0,51.2,0,76.7c0,1.6-0.4,1.9-1.9,1.9c-23.7,0-47.4,0-71.1,0c-15.5,0-27.9-10.7-30.2-26c-0.2-1.6-0.3-3.3-0.3-5
		C-180.7,1094.6-180.7,1068.6-180.7,1042.6z"/>
</g>
</svg>
