<?xml version="1.0" encoding="utf-8"?>
<!-- Generator: Adobe Illustrator 19.1.1, SVG Export Plug-In . SVG Version: 6.00 Build 0)  -->
<!DOCTYPE svg PUBLIC "-//W3C//DTD SVG 1.1//EN" "http://www.w3.org/Graphics/SVG/1.1/DTD/svg11.dtd">
<svg version="1.1" id="Calque_1" xmlns="http://www.w3.org/2000/svg" xmlns:xlink="http://www.w3.org/1999/xlink" x="0px" y="0px"
	 viewBox="-283 705 512 512" style="enable-background:new -283 705 512 512;" xml:space="preserve">
<style type="text/css">
	.st0{fill:#3C3C3C;}
</style>
<path class="st0" d="M-46.1,757c17.6,0,35.1,0,52.7,0c55,17.9,90.8,54.2,105.4,110.6c0,17.6,0,35.1,0,52.7
	c-29.5,90-80.6,168.2-131.7,252.7c-51.5-85.3-102.1-163.4-131.7-252.7c0-17.6,0-35.1,0-52.7C-136.8,811.3-101,775.1-46.1,757z
	 M-20.4,934.1c26.1,0.3,48.5-22.5,48.1-49c-0.4-24.8-20-44.3-45.5-45.1c-28-0.9-49.6,19.5-49.4,46.5
	C-67.1,911.7-45.3,933.9-20.4,934.1z"/>
</svg>
