<?xml version="1.0" encoding="utf-8"?>
<!-- Generator: Adobe Illustrator 19.0.0, SVG Export Plug-In . SVG Version: 6.00 Build 0)  -->
<!DOCTYPE svg PUBLIC "-//W3C//DTD SVG 1.1//EN" "http://www.w3.org/Graphics/SVG/1.1/DTD/svg11.dtd">
<svg version="1.1" id="Calque_1" xmlns="http://www.w3.org/2000/svg" xmlns:xlink="http://www.w3.org/1999/xlink" x="0px" y="0px"
	 viewBox="240 -240 512 512" style="enable-background:new 240 -240 512 512;" xml:space="preserve">
<style type="text/css">
	.st0{display:none;fill:#3C3C3C;}
	.st1{fill:#3C3C3C;}
</style>
<path id="user-icon" class="st0" d="M647.4,120.5c-59-13.6-114-25.5-87.4-75.7c81-152.7,21.5-234.4-64.1-234.4
	c-87.2,0-145.3,84.8-64.1,234.4c27.4,50.5-29.6,62.4-87.4,75.7c-59,13.6-54.5,44.7-54.5,101.2h411.8
	C701.9,165.2,706.5,134.1,647.4,120.5z"/>
<path class="st1" d="M494.6,221.4c-33.9,0-67.8-0.5-101.7,0.2c-25.7,0.6-37.9-10-37.6-36.5c0.7-64.7,0.4-129.5,0.3-194.3
	c0-11.7,0.9-28.4,11.2-29.5c32.5-3.7,24.3-26.2,25.2-45.2c3-59.3,44.8-103.7,99.7-105.7c56.7-2.1,102.2,40.1,108.4,100.1
	c2.1,21-7.9,47.1,27.4,52.6c9,1.4,9.2,17.1,9.2,27.5c0.1,64.8-0.3,129.5,0.3,194.3c0.2,26-11.4,37.3-37.4,36.7
	C564.5,220.8,529.5,221.4,494.6,221.4z M493.9-42.9c0.1,0,0.4,0,0.5,0c14.3,0,28.6,0.4,42.9-0.2c7.5-0.3,17.9,1.6,21-7.4
	c7.3-21.4-4-69.3-23.2-84.8c-19.7-15.9-53.9-17-74.8-2.4c-22.9,16-36.9,52.8-25.7,83c5.8,15.7,31.2,12.2,49.9,11.9
	C487.6-42.9,490.8-42.9,493.9-42.9z M495.5,136.1c18.7,3.3,22.7-5.9,17.8-20.9c-4.3-13.3-5.3-24.9,3.5-37.5
	c7.1-10.2,0.7-19.7-8.1-26.2c-8.3-6.1-17.9-5.4-25.7,0.8c-8.5,6.7-15,16.6-7.1,26.5c10.2,12.8,5.6,24.6,2.3,37.3
	C474.2,131.4,478.6,139.8,495.5,136.1z"/>
</svg>
