<?xml version="1.0" encoding="utf-8"?>
<!-- Generator: Adobe Illustrator 18.0.0, SVG Export Plug-In . SVG Version: 6.00 Build 0)  -->
<!DOCTYPE svg PUBLIC "-//W3C//DTD SVG 1.1//EN" "http://www.w3.org/Graphics/SVG/1.1/DTD/svg11.dtd">
<svg version="1.1" id="Calque_1" xmlns="http://www.w3.org/2000/svg" xmlns:xlink="http://www.w3.org/1999/xlink" x="0px" y="0px"
	 viewBox="0 0 512 512" enable-background="new 0 0 512 512" xml:space="preserve">
<g>
	<path fill="#3C3C3C" d="M372.2,455.9c-5.6-1.5-11.4-2.6-16.8-4.6C214,400.7,117.2,302.8,56,167.6C41.7,136,72.6,62.1,105,51.3
		c7.5-2.5,21.5,1.4,26.5,7.4c19.1,23.2,36.9,47.8,52.4,73.5c3.5,5.9-2.7,19.2-7.2,27.7c-2.8,5.2-10.8,7.6-16.2,11.6
		c-26,19.4-30.7,40.7-12.7,67.2c35,51.7,80.5,92.8,133.9,124.8c22,13.2,30.7,8.2,44-13.5c5.9-9.6,21.5-21.8,29.7-19.9
		c29.6,6.8,59.8,15.9,86.3,30.4c23.4,12.9,26.2,34.9,6.7,52.9c-20.8,19.3-47.9,31.9-72.2,47.4C374.8,459.2,373.5,457.6,372.2,455.9z
		"/>
</g>
</svg>
